<svg width="482" height="363" viewBox="0 0 482 363" fill="none" xmlns="http://www.w3.org/2000/svg">
<path d="M231.047 0C181.881 0 141.888 37.7144 141.888 84.0788C141.874 95.947 144.539 107.682 149.706 118.504C163.679 147.75 194.877 168.158 231.047 168.158C254.689 168.145 277.359 159.283 294.077 143.518C310.794 127.753 320.192 106.374 320.205 84.0788C320.205 37.7144 280.205 0 231.047 0ZM304.813 117.878C298.08 130.927 287.594 141.929 274.552 149.629C261.509 157.33 246.435 161.419 231.047 161.431C196.289 161.431 166.51 140.936 154.592 112.087C150.898 103.161 149.008 93.6609 149.021 84.0788C149.021 41.4273 185.819 6.72631 231.047 6.72631C276.275 6.72631 313.072 41.4273 313.072 84.0788C313.088 95.7918 310.262 107.353 304.813 117.878Z" fill="#D5F2FF"/>
<path d="M231.047 168.407C214.159 168.394 197.619 163.877 183.337 155.377C169.055 146.877 157.614 134.741 150.334 120.371C150.043 119.798 149.917 119.163 149.968 118.53C150.019 117.896 150.245 117.287 150.624 116.761L150.671 116.695C151.05 116.179 151.565 115.765 152.167 115.496C152.768 115.226 153.434 115.111 154.098 115.161C154.761 115.211 155.399 115.425 155.947 115.781C156.496 116.137 156.935 116.623 157.221 117.19C170.748 143.914 199.726 161.182 231.047 161.182C245.36 161.147 259.415 157.585 271.817 150.847C284.219 144.109 294.538 134.431 301.749 122.771C302.085 122.224 302.568 121.77 303.149 121.455C303.731 121.141 304.391 120.977 305.061 120.981C305.725 120.979 306.377 121.145 306.95 121.46C307.523 121.775 307.997 122.228 308.322 122.773L308.364 122.842C308.694 123.393 308.865 124.015 308.862 124.647C308.858 125.279 308.68 125.899 308.343 126.446C300.454 139.186 289.171 149.76 275.612 157.12C262.054 164.48 246.691 168.371 231.047 168.407Z" fill="#336C85"/>
<path d="M210.951 91.769C213.374 91.7542 215.728 92.533 217.61 93.9725C219.493 95.4121 220.787 97.4231 221.272 99.6622C221.757 101.901 221.403 104.23 220.27 106.25C219.137 108.27 217.296 109.857 215.06 110.74C212.825 111.622 210.334 111.746 208.012 111.089C205.691 110.433 203.684 109.037 202.332 107.14C200.981 105.242 200.37 102.962 200.603 100.687C200.836 98.4123 201.9 96.2845 203.611 94.6667C204.571 93.7499 205.714 93.0218 206.973 92.5244C208.233 92.027 209.585 91.7702 210.951 91.769ZM210.951 87.565C208.012 87.5635 205.138 88.3841 202.693 89.9229C200.248 91.4617 198.341 93.6497 197.215 96.2102C196.089 98.7706 195.793 101.589 196.365 104.308C196.937 107.027 198.351 109.525 200.428 111.486C202.506 113.447 205.153 114.783 208.036 115.326C210.918 115.868 213.907 115.592 216.623 114.532C219.34 113.473 221.662 111.678 223.296 109.374C224.931 107.07 225.804 104.36 225.805 101.588C225.808 97.871 224.244 94.3053 221.458 91.6754C218.672 89.0456 214.893 87.567 210.951 87.565ZM241.918 67.5213C243.262 67.5277 244.554 67.0302 245.51 66.1383C246.465 65.2464 247.006 64.033 247.012 62.7652C247.012 62.7491 247.012 62.7329 247.012 62.7167C247.019 62.0957 246.895 61.4795 246.649 60.9035C246.403 60.3274 246.039 59.8027 245.577 59.3594C245.116 58.916 244.567 58.5627 243.961 58.3195C243.355 58.0764 242.704 57.9482 242.045 57.9423C242.013 57.942 241.981 57.942 241.949 57.9423C240.603 57.9303 239.306 58.4234 238.344 59.3131C237.383 60.2028 236.836 61.4163 236.823 62.6865C236.81 63.9567 237.333 65.1797 238.277 66.0864C239.22 66.993 240.507 67.5091 241.854 67.5211C241.875 67.5213 241.896 67.5213 241.918 67.5213ZM252.569 91.769C254.992 91.7541 257.346 92.533 259.228 93.9725C261.11 95.412 262.405 97.423 262.89 99.6622C263.375 101.901 263.02 104.23 261.888 106.25C260.755 108.27 258.913 109.857 256.678 110.74C254.442 111.622 251.951 111.746 249.63 111.089C247.309 110.433 245.301 109.037 243.95 107.14C242.599 105.242 241.988 102.962 242.221 100.687C242.454 98.4123 243.517 96.2844 245.229 94.6667C246.189 93.7499 247.331 93.0218 248.591 92.5244C249.851 92.027 251.203 91.7702 252.569 91.769ZM252.569 87.565C249.631 87.565 246.759 88.3866 244.316 89.9258C241.873 91.4651 239.969 93.6528 238.845 96.2125C237.721 98.7721 237.427 101.589 238 104.306C238.573 107.023 239.988 109.519 242.065 111.478C244.143 113.437 246.789 114.772 249.671 115.312C252.552 115.853 255.539 115.575 258.253 114.515C260.968 113.455 263.288 111.659 264.92 109.356C266.552 107.052 267.423 104.344 267.423 101.573C267.423 99.7336 267.039 97.912 266.293 96.2125C265.546 94.513 264.452 92.9687 263.073 91.6679C261.693 90.3672 260.056 89.3353 258.253 88.6313C256.451 87.9274 254.52 87.565 252.569 87.565Z" fill="#336C85"/>
<path d="M249.592 76.4107H241.949L237.253 67.3873C236.874 66.7545 236.344 66.2133 235.706 65.8062C235.068 65.3991 234.338 65.1373 233.574 65.0412C232.81 64.9452 232.033 65.0176 231.304 65.2527C230.575 65.4878 229.913 65.8793 229.372 66.3963L217.956 76.7711C217.022 77.6705 216.492 78.8752 216.476 80.1342C216.476 82.7467 218.482 83.6776 219.421 84.203C226.665 88.1367 229.213 88.5721 229.213 90.539V100.433C229.213 101.07 229.481 101.681 229.959 102.132C230.436 102.582 231.084 102.835 231.76 102.835C232.436 102.835 233.084 102.582 233.561 102.132C234.039 101.681 234.307 101.07 234.307 100.433V86.9206C234.307 84.9387 229.467 83.3172 226.617 81.2153L234.403 73.483C237.38 77.762 238.749 81.2153 240.453 81.2153H249.592C250.267 81.2163 250.916 80.9642 251.394 80.5144C251.873 80.0646 252.142 79.454 252.143 78.8169C252.144 78.1798 251.877 77.5683 251.4 77.1171C250.923 76.6659 250.275 76.4118 249.6 76.4108L249.592 76.4107Z" fill="#336C85"/>
<path d="M123.333 213.497C121.138 213.497 119.321 219.522 118.969 227.422H76.7529C76.4007 219.522 74.5839 213.497 72.3894 213.497C69.943 213.497 67.9596 220.979 67.9596 230.207C67.9596 239.436 69.943 246.917 72.3894 246.917C74.5839 246.917 76.4007 240.892 76.7529 232.992H118.969C119.321 240.892 121.138 246.917 123.333 246.917C125.779 246.917 127.763 239.436 127.763 230.207C127.763 220.979 125.779 213.497 123.333 213.497Z" fill="#336C85"/>
<path d="M143.897 205.536C137.639 194.96 127.509 186.898 115.402 182.859C103.295 178.819 90.0424 179.08 78.1247 183.592C66.207 188.104 56.442 196.558 50.6579 207.37C44.8739 218.183 43.4675 230.613 46.7021 242.333C49.9368 254.053 57.5906 264.26 68.2305 271.041C78.8704 277.823 91.7667 280.715 104.505 279.175C117.243 277.636 128.949 271.77 137.431 262.678C145.914 253.585 150.591 241.888 150.587 229.778C150.584 221.291 148.281 212.947 143.897 205.536ZM97.7768 275.59C84.9772 275.529 72.726 270.683 63.7101 262.115C54.6942 253.547 49.6496 241.956 49.6827 229.886C49.7158 217.815 54.824 206.25 63.8868 197.726C72.9496 189.202 85.2272 184.416 98.027 184.417C110.827 184.417 123.104 189.205 132.165 197.73C141.227 206.255 146.334 217.821 146.365 229.892C146.396 241.962 141.35 253.552 132.333 262.119C123.316 270.686 111.064 275.53 98.2645 275.59C98.102 275.591 97.9394 275.591 97.7768 275.59Z" fill="#D5F2FF"/>
<path d="M97.8027 279.829C87.7403 279.833 77.8847 277.135 69.3896 272.049C68.9654 271.793 68.6379 271.418 68.4545 270.976L68.4279 270.911C68.2435 270.473 68.2132 269.991 68.3415 269.536C68.4697 269.081 68.7497 268.676 69.1402 268.383C69.5177 268.083 69.9871 267.906 70.4794 267.878C70.9716 267.85 71.4604 267.971 71.8737 268.225C80.9031 273.645 91.5861 276.083 102.244 275.155C112.902 274.228 122.932 269.988 130.757 263.101C138.582 256.214 143.759 247.071 145.476 237.108C147.192 227.145 145.35 216.926 140.239 208.058C139.999 207.651 139.905 207.183 139.969 206.722C140.033 206.26 140.252 205.831 140.595 205.496C140.933 205.149 141.381 204.914 141.872 204.825C142.363 204.735 142.871 204.798 143.322 205.002L143.388 205.031C143.84 205.23 144.214 205.56 144.454 205.973C148.829 213.592 151.031 222.152 150.844 230.815C150.657 239.478 148.087 247.946 143.387 255.391C138.687 262.836 132.017 269.002 124.031 273.286C116.045 277.57 107.015 279.824 97.8275 279.829H97.8027Z" fill="#336C85"/>
<path d="M363.292 179.985C356.356 179.982 349.487 181.268 343.077 183.769C336.668 186.27 330.844 189.937 325.938 194.561C321.032 199.184 317.139 204.674 314.483 210.717C311.827 216.76 310.46 223.236 310.458 229.778C310.457 236.319 311.822 242.796 314.476 248.839C317.13 254.883 321.02 260.374 325.924 265C330.829 269.625 336.651 273.294 343.06 275.797C349.468 278.301 356.336 279.589 363.273 279.588H363.292C363.634 279.588 363.97 279.588 364.312 279.575C378.227 279.322 391.474 273.899 401.172 264.485C410.87 255.072 416.235 242.428 416.101 229.304C415.967 216.179 410.343 203.636 400.454 194.4C390.565 185.165 377.21 179.984 363.292 179.985ZM374.055 274.463C367.389 275.89 360.479 275.975 353.776 274.712C347.073 273.449 340.728 270.866 335.156 267.132C329.583 263.399 324.909 258.598 321.439 253.045C317.968 247.491 315.78 241.31 315.016 234.904C314.252 228.498 314.93 222.012 317.006 215.871C319.082 209.729 322.508 204.069 327.062 199.262C331.616 194.454 337.194 190.607 343.432 187.971C349.67 185.336 356.428 183.971 363.263 183.967H363.292C375.24 183.966 386.77 188.118 395.677 195.628C404.585 203.138 410.245 213.48 411.577 224.677C412.909 235.874 409.818 247.142 402.897 256.326C395.975 265.51 385.707 271.967 374.055 274.463Z" fill="#D5F2FF"/>
<path d="M363.292 279.838C350.194 279.837 337.558 275.27 327.816 267.014C318.074 258.758 311.913 247.396 310.519 235.115C309.124 222.833 312.595 210.499 320.262 200.485C327.93 190.471 339.254 183.484 352.055 180.869C352.37 180.805 352.695 180.801 353.012 180.857L353.122 180.877C353.653 180.974 354.132 181.241 354.479 181.633C354.825 182.024 355.018 182.517 355.025 183.027C355.031 183.537 354.85 184.034 354.513 184.433C354.177 184.832 353.704 185.109 353.175 185.218C341.506 187.577 331.176 193.925 324.173 203.038C317.171 212.152 313.992 223.386 315.249 234.578C316.506 245.77 322.11 256.127 330.982 263.655C339.853 271.183 351.365 275.349 363.299 275.35C363.766 275.346 364.22 275.344 364.68 275.331C365.194 275.311 365.699 275.462 366.107 275.758C366.514 276.054 366.798 276.476 366.909 276.949C367.031 277.407 366.977 277.89 366.757 278.314C366.537 278.737 366.165 279.074 365.707 279.264C365.396 279.398 365.084 279.53 364.77 279.659C364.506 279.77 364.221 279.829 363.932 279.834C363.719 279.838 363.507 279.838 363.292 279.838Z" fill="#336C85"/>
<path d="M389.345 227.669C387.938 227.603 386.546 227.972 385.383 228.721C384.219 229.47 383.348 230.557 382.901 231.817H377.7L373.903 221.05C373.762 220.647 373.49 220.295 373.125 220.046C372.76 219.797 372.321 219.663 371.871 219.663H371.83C371.373 219.67 370.931 219.816 370.569 220.079C370.208 220.343 369.947 220.71 369.825 221.126L363.875 240.706L356.883 201.104C356.802 200.646 356.556 200.228 356.187 199.92C355.817 199.612 355.347 199.434 354.855 199.415C354.362 199.396 353.878 199.537 353.483 199.814C353.088 200.092 352.806 200.49 352.685 200.94L345.599 231.817H337.657C337.09 231.817 336.546 232.03 336.145 232.408C335.744 232.786 335.518 233.3 335.518 233.835C335.518 234.37 335.744 234.883 336.145 235.261C336.546 235.639 337.09 235.852 337.657 235.852H347.284C347.76 235.852 348.223 235.703 348.599 235.426C348.974 235.15 349.241 234.762 349.356 234.326L354.356 211.354L361.215 250.175C361.293 250.627 361.534 251.04 361.896 251.345C362.259 251.65 362.722 251.829 363.207 251.851H363.327C363.792 251.851 364.244 251.708 364.616 251.444C364.987 251.18 365.257 250.81 365.386 250.389L372.031 228.501L374.13 234.465C374.273 234.867 374.546 235.217 374.91 235.466C375.275 235.714 375.712 235.849 376.162 235.852H382.994C383.403 236.872 384.096 237.769 385 238.448C385.905 239.128 386.987 239.564 388.133 239.711C389.278 239.858 390.445 239.711 391.509 239.285C392.574 238.858 393.496 238.169 394.179 237.289C394.862 236.409 395.28 235.371 395.389 234.285C395.498 233.2 395.295 232.107 394.799 231.121C394.304 230.136 393.536 229.295 392.576 228.687C391.616 228.08 390.499 227.728 389.345 227.669Z" fill="#336C85"/>
<path d="M220.523 349.802C220.523 349.802 225.348 341.792 231.543 346.528C237.737 351.264 249.209 359.256 249.209 359.256C249.209 359.256 251.559 364.367 245.478 362.447C239.396 360.527 219.543 357.438 219.543 357.438L220.523 349.802Z" fill="#FEB8B8"/>
<path d="M196.82 359.758C191.629 359.758 186.876 359.255 183.1 358.065C178.611 356.651 175.793 354.364 174.722 351.262C174.219 349.945 174.069 348.517 174.287 347.123C174.505 345.728 175.083 344.417 175.963 343.321C182.603 334.566 205.645 332.096 208.737 331.804L215.009 319.785C215.41 316.918 213.512 314.747 216.792 314.692L255.599 314.159C258.821 314.091 257.906 316.11 258.458 318.906L264.37 329.586L238.924 340.454L242.771 349.941L242.52 350.089C235.073 354.46 213.656 359.758 196.82 359.758Z" fill="#2F2E41"/>
<path d="M260.848 330.042C260.848 330.042 296.385 325.927 294.067 342.389C291.749 358.85 264.71 370.511 223.765 342.389L228.401 334.158C228.401 334.158 243.659 333.39 252.929 329.274L260.848 330.042Z" fill="#2F2E41"/>
<path d="M210.536 255.464C210.536 255.464 203.782 254.221 201.94 264.785C200.098 275.348 197.147 300.37 197.147 300.37L187.985 332.511C186.905 333.092 186.01 333.971 185.404 335.047C184.799 336.123 184.509 337.351 184.568 338.588C184.627 339.825 185.033 341.019 185.737 342.031C186.442 343.043 187.416 343.831 188.547 344.304C189.678 344.777 190.918 344.914 192.123 344.7C193.328 344.486 194.448 343.929 195.352 343.095C196.256 342.261 196.907 341.184 197.229 339.989C197.55 338.795 197.529 337.532 197.169 336.349L209.428 302.236L211.764 272.865V257.475C211.764 257.057 211.649 256.648 211.433 256.293C211.216 255.938 210.905 255.651 210.536 255.464Z" fill="#FEB8B8"/>
<path d="M258.078 255.464C258.078 255.464 264.833 254.221 266.675 264.785C268.517 275.348 271.467 300.37 271.467 300.37L280.629 332.511C281.71 333.092 282.605 333.971 283.21 335.047C283.815 336.123 284.105 337.351 284.046 338.588C283.987 339.825 283.582 341.019 282.877 342.031C282.173 343.043 281.198 343.831 280.068 344.304C278.937 344.777 277.696 344.914 276.491 344.7C275.287 344.486 274.167 343.929 273.263 343.095C272.359 342.261 271.708 341.184 271.386 339.989C271.064 338.795 271.085 337.532 271.446 336.349L259.187 302.236L256.85 272.865V257.475C256.85 257.057 256.965 256.648 257.182 256.293C257.399 255.938 257.709 255.651 258.078 255.464Z" fill="#FEB8B8"/>
<path d="M257.563 246.733L244.787 241.897L220.024 241.574L209.365 246.733L212.359 264.144C212.359 264.144 206.314 274.502 212.969 284.86L214.463 321.771C214.463 321.771 238.338 335.781 258.49 318.957L253.935 284.639C253.935 284.639 261.554 268.717 255.649 262.802L257.563 246.733Z" fill="#336C85"/>
<path d="M252.36 252.143L257.563 246.733C257.563 246.733 268.92 252.778 268.686 272.996L254.36 268.528L252.36 252.143Z" fill="#336C85"/>
<path d="M215.146 252.143L209.617 246.549C209.617 246.549 199.862 254.185 200.096 274.403L213.145 268.528L215.146 252.143Z" fill="#336C85"/>
<path d="M251.185 345.802C251.185 345.802 247.206 337.329 240.56 341.391C233.914 345.453 221.686 352.2 221.686 352.2C221.686 352.2 218.826 357.037 225.071 355.765C231.316 354.493 251.379 353.5 251.379 353.5L251.185 345.802Z" fill="#FEB8B8"/>
<path d="M240.129 194.339C240.185 194.284 240.244 194.235 240.3 194.179C243.856 190.581 244.577 185.475 241.909 182.776C239.389 180.226 234.746 180.74 231.242 183.842C228.238 180.947 224.209 180.14 221.601 182.138C218.594 184.443 218.617 189.6 221.654 193.657C221.861 193.935 222.08 194.197 222.304 194.45C218.263 195.947 214.775 198.663 212.31 202.232C209.846 205.801 208.524 210.05 208.524 214.404V234.627C208.524 235.22 208.639 235.807 208.864 236.355C209.088 236.903 209.417 237.4 209.831 237.82C210.245 238.239 210.737 238.572 211.279 238.798C211.82 239.025 212.4 239.142 212.986 239.142H249.921C251.065 239.142 252.162 238.682 252.97 237.864C253.779 237.046 254.233 235.936 254.233 234.778V214.404C254.233 209.991 252.874 205.688 250.347 202.093C247.819 198.497 244.248 195.787 240.129 194.339Z" fill="#2F2E41"/>
<path d="M244.355 231.93C251.2 225.003 251.2 213.774 244.355 206.847C237.511 199.921 226.414 199.921 219.569 206.847C212.724 213.774 212.724 225.003 219.569 231.93C226.414 238.856 237.511 238.856 244.355 231.93Z" fill="#FFB6B6"/>
<path d="M213.546 208.233C217.551 211.026 222.305 212.513 227.169 212.493C225.434 213.711 223.458 214.533 221.379 214.903C227.846 216.307 234.53 216.345 241.013 215.015C242.454 214.781 243.844 214.298 245.123 213.587C245.76 213.226 246.315 212.735 246.752 212.143C247.189 211.552 247.499 210.873 247.66 210.153C248.09 207.663 246.173 205.4 244.18 203.876C241.129 201.577 237.611 199.993 233.881 199.239C230.151 198.484 226.302 198.578 222.612 199.514C220.203 200.144 217.79 201.209 216.225 203.167C214.66 205.125 214.196 208.144 215.687 210.16L213.546 208.233Z" fill="#2F2E41"/>
</svg>
